# xmcd CD database file generated by freedbAccess_ocx
#
# Track frame offsets:
#       183
#       13195
#       24970
#       41958
#       56170
#       73833
#       90008
#       106083
#       118883
#       130733
#       143258
#       158433
#       168708
#       182583
#       197733
#
# Disc length: 2824 seconds
#
# Revision: 0
# Processed by: cddbd v1.5.1PL2 Copyright (c) Steve Scherf et al.
# Submitted via: CDnGo 2.09
#
DISCID=c10b060f
DTITLE=Varios - Lo Mejor del Bolero vol 2
DYEAR=1995
DGENRE=Pop
TTITLE0=Olga Guillot - Adoro
TTITLE1=Olga Guillot - La Mentira
TTITLE2=Olga Guillot - Tú Me Acostumbraste
TTITLE3=Moncho - Noche De Ronda
TTITLE4=Moncho - Que Sabes Tú ?
TTITLE5=Moncho - Por El Amor De Una Mujer
TTITLE6=Paquita La Del Barrio - Se
TTITLE7=Paquita La Del Barrio - Desquitate Conmigo
TTITLE8=Paquita La Del Barrio - Por Ser Del Arrabal
TTITLE9=Lucho Gatica - Envidia
TTITLE10=Lucho Gatica - Perdóname Mi Vida
TTITLE11=Lucho Gatica - Cariño Mío
TTITLE12=Los Tres Caballeros - El Reloj
TTITLE13=Los Tres Caballeros - La Barca
TTITLE14=Los Tres Caballeros - Tu Condena
EXTD=
EXTT0=
EXTT1=
EXTT2=
EXTT3=
EXTT4=
EXTT5=
EXTT6=
EXTT7=
EXTT8=
EXTT9=
EXTT10=
EXTT11=
EXTT12=
EXTT13=
EXTT14=
PLAYORDER=
